<svg width="56" height="56" viewBox="0 0 56 56" fill="none" xmlns="http://www.w3.org/2000/svg">
<g filter="url(#filter0_ii_1013_1543)">
<rect width="56" height="56" rx="14" fill="#F8F6F0"/>
<rect x="0.5" y="0.5" width="55" height="55" rx="13.5" stroke="black" stroke-opacity="0.2"/>
<path d="M13.4767 33.6102C13.4495 33.6648 13.3768 33.7193 13.3344 33.7617C13.301 32.8621 13.2768 31.9685 13.3253 31.0688C13.3737 30.1843 13.501 29.3089 13.6766 28.4426C13.7978 27.8549 13.9371 27.2582 14.128 26.6857C14.2855 26.2131 14.446 25.7376 14.6429 25.2741C15.4214 23.4294 16.5755 21.6816 18.0174 20.2882C18.9322 19.4067 19.9833 18.6434 21.0859 18.0103C21.9583 17.5105 22.8821 17.0682 23.8303 16.7289C25.2055 16.2352 26.6443 15.9081 28.071 15.593L31.6575 14.9387L36.9857 14.2875L39.4424 14.0391C40.3935 13.9422 41.378 13.924 42.2988 13.6574C42.5109 13.5968 42.7229 13.5332 42.9198 13.4333C43.1894 13.2939 43.3348 13.1213 43.4317 12.8335L43.4529 12.994L43.6377 14.4753C43.665 14.7085 43.6559 14.9448 43.668 15.175L43.7074 15.69L43.7164 17.2984L43.7074 18.3495L43.668 18.9584L43.6528 19.4854L43.5135 20.7032L43.359 21.8451C43.0137 23.8686 42.3897 25.8708 41.4204 27.6823C41.2629 27.973 41.1144 28.2669 40.9387 28.5456C40.5995 29.0878 40.2057 29.5876 39.8089 30.0874L38.8638 31.084C38.7487 31.196 38.6154 31.3445 38.47 31.4232C38.47 31.4323 38.4549 31.4384 38.4488 31.4475L37.8702 31.923C36.9373 32.6561 35.868 33.2346 34.7654 33.6678L32.5662 34.419L31.3031 34.837L28.7193 35.5459L27.0411 36.0063L25.9506 36.3031L22.7428 37.0695L18.3112 38.2266C17.0905 38.6083 15.9061 39.0475 14.7914 39.6806C13.9432 40.1622 13.1647 40.7953 12.5407 41.5496C12.2287 41.9282 11.9561 42.3341 11.6714 42.7309C11.6562 42.6461 11.6774 42.5249 11.6835 42.4341C11.7077 41.9797 11.8077 41.5405 11.9228 41.1013C12.0924 40.4409 12.3075 39.7957 12.5619 39.1626C13.0254 37.9994 13.6312 36.8817 14.3309 35.8427C14.6248 35.4065 14.9125 34.9582 15.2366 34.5432C17.7811 31.293 21.0495 28.6607 24.6269 26.6221L27.2259 25.262C27.3562 25.2014 27.962 24.9439 28.0044 24.8712C27.9892 24.8591 27.9862 24.8591 27.968 24.8531C27.8317 24.8228 27.6015 24.8682 27.4652 24.8955L26.5898 25.1014C25.4872 25.3771 24.424 25.8072 23.3941 26.2737L22.6216 26.613C21.6947 27.0643 20.8072 27.5823 19.9439 28.1427L18.8958 28.8333L16.7512 30.4781L13.4767 33.6102ZM13.4767 33.6102L16.7512 30.4781L16.727 30.4751C16.6906 30.469 16.7058 30.4721 16.6724 30.46L16.6361 30.5054H16.6058C16.5846 30.5448 16.5907 30.5448 16.5513 30.5629C16.4786 30.5963 16.4089 30.6871 16.3514 30.7417L16.3332 30.7508C16.315 30.7659 16.309 30.775 16.2968 30.7932C16.2544 30.8113 16.2484 30.8477 16.215 30.8598C16.1817 30.8719 16.1575 30.9022 16.1302 30.9264L15.9939 31.0476L15.9697 31.0658L15.9606 31.0809C15.9455 31.1052 15.9333 31.1052 15.9121 31.1233L15.8728 31.1597L15.8576 31.1748C15.8364 31.193 15.8485 31.1839 15.8303 31.2021C15.8061 31.2294 15.7789 31.2506 15.7486 31.2718C15.6668 31.3263 15.5759 31.4172 15.5062 31.4899C15.376 31.6292 15.2064 31.7473 15.0852 31.8927C15.067 31.92 15.0549 31.92 15.0337 31.9382C15.0125 31.9563 14.9973 31.9775 14.9731 31.9988C14.9125 32.0502 14.8429 32.1229 14.7944 32.1835C14.7702 32.2108 14.7611 32.2108 14.7368 32.229C14.6581 32.2956 14.5733 32.3956 14.5006 32.4683C14.4854 32.4864 14.4854 32.4955 14.4612 32.5107C14.3855 32.5652 14.3006 32.6712 14.2279 32.7409L13.7009 33.2922C13.6191 33.377 13.5161 33.4558 13.4495 33.5497L13.4616 33.5739C13.4767 33.6012 13.4737 33.5921 13.4767 33.6102ZM38.47 31.4232C38.6154 31.3445 38.7487 31.196 38.8638 31.084L39.8089 30.0874C39.7846 30.0692 39.7816 30.0662 39.7483 30.0601C39.7089 30.1056 39.6665 30.148 39.6332 30.1964C39.5332 30.3327 39.3848 30.4357 39.2727 30.5629C39.0395 30.8386 38.7608 31.0779 38.5033 31.3293L38.4609 31.3596L38.47 31.4232Z" fill="url(#paint0_linear_1013_1543)"/>
</g>
<defs>
<filter id="filter0_ii_1013_1543" x="0" y="-3.5" width="56" height="63" filterUnits="userSpaceOnUse" color-interpolation-filters="sRGB">
<feFlood flood-opacity="0" result="BackgroundImageFix"/>
<feBlend mode="normal" in="SourceGraphic" in2="BackgroundImageFix" result="shape"/>
<feColorMatrix in="SourceAlpha" type="matrix" values="0 0 0 0 0 0 0 0 0 0 0 0 0 0 0 0 0 0 127 0" result="hardAlpha"/>
<feOffset dy="-3.5"/>
<feGaussianBlur stdDeviation="1.75"/>
<feComposite in2="hardAlpha" operator="arithmetic" k2="-1" k3="1"/>
<feColorMatrix type="matrix" values="0 0 0 0 0 0 0 0 0 0 0 0 0 0 0 0 0 0 0.1 0"/>
<feBlend mode="normal" in2="shape" result="effect1_innerShadow_1013_1543"/>
<feColorMatrix in="SourceAlpha" type="matrix" values="0 0 0 0 0 0 0 0 0 0 0 0 0 0 0 0 0 0 127 0" result="hardAlpha"/>
<feOffset dy="3.5"/>
<feGaussianBlur stdDeviation="1.75"/>
<feComposite in2="hardAlpha" operator="arithmetic" k2="-1" k3="1"/>
<feColorMatrix type="matrix" values="0 0 0 0 1 0 0 0 0 1 0 0 0 0 1 0 0 0 0.1 0"/>
<feBlend mode="normal" in2="effect1_innerShadow_1013_1543" result="effect2_innerShadow_1013_1543"/>
</filter>
<linearGradient id="paint0_linear_1013_1543" x1="27.6912" y1="12.8335" x2="27.6912" y2="42.7309" gradientUnits="userSpaceOnUse">
<stop stop-color="#0F1828"/>
<stop offset="1" stop-color="#0F1828" stop-opacity="0.56"/>
</linearGradient>
</defs>
</svg>
