<svg width="218" height="56" viewBox="0 0 218 56" fill="none" xmlns="http://www.w3.org/2000/svg">
<path d="M82.0718 22.9798C81.9648 21.9788 81.514 21.1994 80.7193 20.6416C79.9323 20.0838 78.9084 19.8049 77.6477 19.8049C76.7613 19.8049 76.001 19.9387 75.3669 20.2061C74.7327 20.4735 74.2474 20.8365 73.9112 21.2949C73.575 21.7534 73.4031 22.2768 73.3955 22.8652C73.3955 23.3542 73.5063 23.7782 73.7279 24.1374C73.9571 24.4965 74.2666 24.8021 74.6562 25.0543C75.0459 25.2988 75.4776 25.5051 75.9514 25.6732C76.4251 25.8413 76.9027 25.9827 77.3841 26.0973L79.5847 26.6474C80.471 26.8537 81.323 27.1326 82.1406 27.4841C82.9658 27.8356 83.7031 28.2788 84.3526 28.8136C85.0097 29.3485 85.5293 29.9942 85.9114 30.7506C86.2934 31.5071 86.4844 32.3934 86.4844 33.4097C86.4844 34.785 86.133 35.9961 85.43 37.0429C84.727 38.0821 83.7108 38.8959 82.3812 39.4842C81.0594 40.0649 79.4586 40.3553 77.5789 40.3553C75.7527 40.3553 74.1672 40.0726 72.8224 39.5072C71.4852 38.9417 70.4384 38.1165 69.682 37.0315C68.9332 35.9465 68.5282 34.6246 68.4671 33.0658H72.6505C72.7116 33.8834 72.9638 34.5635 73.4069 35.106C73.8501 35.6485 74.427 36.0534 75.1376 36.3209C75.8559 36.5883 76.6582 36.722 77.5445 36.722C78.4691 36.722 79.279 36.5845 79.9743 36.3094C80.6773 36.0267 81.2275 35.637 81.6248 35.1404C82.0221 34.636 82.2246 34.0477 82.2323 33.3753C82.2246 32.764 82.045 32.2597 81.6936 31.8624C81.3421 31.4574 80.8492 31.1212 80.215 30.8538C79.5885 30.5787 78.8549 30.3342 78.0144 30.1202L75.3439 29.4326C73.4108 28.9359 71.8826 28.1833 70.7594 27.1747C69.6438 26.1584 69.086 24.8098 69.086 23.1288C69.086 21.7457 69.4604 20.5347 70.2092 19.4955C70.9657 18.4563 71.9934 17.6502 73.2923 17.0771C74.5913 16.4964 76.0622 16.2061 77.705 16.2061C79.3707 16.2061 80.8301 16.4964 82.0833 17.0771C83.344 17.6502 84.3335 18.4487 85.0518 19.4726C85.77 20.4888 86.1406 21.6579 86.1635 22.9798H82.0718ZM98.8829 22.3952V25.6044H88.7624V22.3952H98.8829ZM91.261 18.1774H95.41V34.7048C95.41 35.2626 95.4941 35.6905 95.6622 35.9885C95.8379 36.2789 96.0672 36.4775 96.3499 36.5845C96.6326 36.6915 96.9459 36.745 97.2897 36.745C97.5495 36.745 97.7864 36.7258 98.0003 36.6876C98.2219 36.6494 98.39 36.6151 98.5046 36.5845L99.2038 39.8281C98.9822 39.9045 98.6651 39.9885 98.2525 40.0802C97.8475 40.1719 97.3508 40.2254 96.7625 40.2407C95.7233 40.2713 94.7873 40.1146 93.9544 39.7708C93.1216 39.4193 92.4606 38.8768 91.9716 38.1432C91.4902 37.4097 91.2534 36.4928 91.261 35.3925V18.1774ZM107.419 40.3553C106.303 40.3553 105.298 40.1566 104.404 39.7593C103.518 39.3543 102.815 38.7583 102.295 37.9713C101.784 37.1843 101.528 36.2139 101.528 35.0601C101.528 34.0668 101.711 33.2454 102.078 32.5959C102.444 31.9464 102.945 31.4268 103.579 31.0372C104.213 30.6475 104.928 30.3533 105.722 30.1546C106.525 29.9483 107.354 29.7993 108.21 29.7076C109.241 29.6007 110.078 29.5051 110.72 29.4211C111.361 29.3294 111.828 29.1919 112.118 29.0085C112.416 28.8175 112.565 28.5233 112.565 28.1259V28.0572C112.565 27.1938 112.309 26.5252 111.797 26.0514C111.285 25.5777 110.548 25.3408 109.585 25.3408C108.569 25.3408 107.763 25.5624 107.167 26.0056C106.578 26.4488 106.181 26.9722 105.975 27.5758L102.101 27.0257C102.406 25.9559 102.911 25.0619 103.614 24.3437C104.317 23.6178 105.176 23.0753 106.192 22.7162C107.209 22.3494 108.332 22.166 109.562 22.166C110.41 22.166 111.255 22.2653 112.095 22.464C112.936 22.6627 113.703 22.9912 114.399 23.4497C115.094 23.9005 115.652 24.5156 116.072 25.295C116.5 26.0744 116.714 27.0486 116.714 28.2176V40H112.725V37.5816H112.588C112.336 38.0707 111.98 38.5291 111.522 38.957C111.071 39.3773 110.502 39.7173 109.814 39.9771C109.134 40.2292 108.336 40.3553 107.419 40.3553ZM108.496 37.3066C109.329 37.3066 110.051 37.1423 110.662 36.8137C111.274 36.4775 111.744 36.0343 112.072 35.4842C112.408 34.934 112.576 34.3342 112.576 33.6847V31.6102C112.447 31.7172 112.225 31.8165 111.912 31.9082C111.606 31.9999 111.262 32.0801 110.88 32.1489C110.498 32.2177 110.12 32.2788 109.745 32.3323C109.371 32.3858 109.046 32.4316 108.771 32.4698C108.152 32.5539 107.598 32.6914 107.109 32.8824C106.62 33.0735 106.234 33.3409 105.952 33.6847C105.669 34.0209 105.528 34.4565 105.528 34.9914C105.528 35.7554 105.807 36.3323 106.364 36.722C106.922 37.1117 107.633 37.3066 108.496 37.3066ZM120.886 40V22.3952H124.909V25.3294H125.092C125.413 24.3131 125.963 23.5299 126.743 22.9798C127.53 22.422 128.428 22.1431 129.436 22.1431C129.665 22.1431 129.921 22.1545 130.204 22.1775C130.494 22.1927 130.735 22.2195 130.926 22.2577V26.0744C130.75 26.0132 130.472 25.9597 130.089 25.9139C129.715 25.8604 129.352 25.8337 129.001 25.8337C128.244 25.8337 127.564 25.9979 126.961 26.3265C126.365 26.6474 125.895 27.0944 125.551 27.6675C125.207 28.2406 125.035 28.9015 125.035 29.6503V40H120.886ZM143.419 22.3952V25.6044H133.299V22.3952H143.419ZM135.797 18.1774H139.946V34.7048C139.946 35.2626 140.03 35.6905 140.198 35.9885C140.374 36.2789 140.603 36.4775 140.886 36.5845C141.169 36.6915 141.482 36.745 141.826 36.745C142.086 36.745 142.323 36.7258 142.537 36.6876C142.758 36.6494 142.926 36.6151 143.041 36.5845L143.74 39.8281C143.518 39.9045 143.201 39.9885 142.789 40.0802C142.384 40.1719 141.887 40.2254 141.299 40.2407C140.26 40.2713 139.324 40.1146 138.491 39.7708C137.658 39.4193 136.997 38.8768 136.508 38.1432C136.027 37.4097 135.79 36.4928 135.797 35.3925V18.1774ZM154.494 40.3438C152.729 40.3438 151.204 39.9771 149.921 39.2435C148.645 38.5024 147.663 37.4556 146.975 36.1031C146.287 34.743 145.944 33.1422 145.944 31.3008C145.944 29.4899 146.287 27.9005 146.975 26.5328C147.67 25.1574 148.641 24.0877 149.886 23.3236C151.132 22.5519 152.595 22.166 154.276 22.166C155.361 22.166 156.385 22.3417 157.348 22.6932C158.318 23.0371 159.174 23.5719 159.915 24.2978C160.664 25.0237 161.252 25.9483 161.68 27.0715C162.108 28.1871 162.322 29.5166 162.322 31.0601V32.3323H147.892V29.5357H158.345C158.337 28.741 158.165 28.0343 157.829 27.4153C157.493 26.7888 157.023 26.2959 156.419 25.9368C155.823 25.5777 155.128 25.3981 154.333 25.3981C153.485 25.3981 152.74 25.6044 152.098 26.017C151.456 26.422 150.956 26.9569 150.597 27.6216C150.245 28.2788 150.066 29.0008 150.058 29.7879V32.2291C150.058 33.253 150.245 34.1317 150.62 34.8653C150.994 35.5912 151.518 36.149 152.19 36.5386C152.862 36.9207 153.649 37.1117 154.551 37.1117C155.155 37.1117 155.701 37.0277 156.19 36.8596C156.679 36.6838 157.103 36.4279 157.462 36.0916C157.821 35.7554 158.093 35.339 158.276 34.8424L162.15 35.2779C161.905 36.3018 161.439 37.1958 160.752 37.9599C160.072 38.7163 159.201 39.3047 158.138 39.7249C157.076 40.1375 155.861 40.3438 154.494 40.3438ZM165.832 40V22.3952H169.855V25.3294H170.038C170.359 24.3131 170.909 23.5299 171.689 22.9798C172.476 22.422 173.374 22.1431 174.382 22.1431C174.611 22.1431 174.867 22.1545 175.15 22.1775C175.44 22.1927 175.681 22.2195 175.872 22.2577V26.0744C175.696 26.0132 175.418 25.9597 175.036 25.9139C174.661 25.8604 174.298 25.8337 173.947 25.8337C173.19 25.8337 172.51 25.9979 171.907 26.3265C171.311 26.6474 170.841 27.0944 170.497 27.6675C170.153 28.2406 169.981 28.9015 169.981 29.6503V40H165.832ZM201.615 16.527H205.867V31.8624C205.867 33.5434 205.469 35.0219 204.675 36.298C203.888 37.574 202.78 38.5711 201.351 39.2894C199.922 40 198.253 40.3553 196.342 40.3553C194.424 40.3553 192.751 40 191.322 39.2894C189.893 38.5711 188.785 37.574 187.998 36.298C187.211 35.0219 186.818 33.5434 186.818 31.8624V16.527H191.07V31.5071C191.07 32.4851 191.284 33.3562 191.712 34.1203C192.147 34.8844 192.759 35.4842 193.546 35.9197C194.333 36.3476 195.265 36.5616 196.342 36.5616C197.42 36.5616 198.352 36.3476 199.139 35.9197C199.934 35.4842 200.545 34.8844 200.973 34.1203C201.401 33.3562 201.615 32.4851 201.615 31.5071V16.527ZM214.741 16.527V40H210.489V16.527H214.741Z" fill="#0F1828"/>
<g filter="url(#filter0_ii_1013_1549)">
<rect width="56" height="56" rx="14" fill="white"/>
<rect x="0.5" y="0.5" width="55" height="55" rx="13.5" stroke="black" stroke-opacity="0.2"/>
<path d="M13.4767 33.6102C13.4495 33.6648 13.3768 33.7193 13.3344 33.7617C13.301 32.8621 13.2768 31.9685 13.3253 31.0688C13.3737 30.1843 13.501 29.3089 13.6766 28.4426C13.7978 27.8549 13.9371 27.2582 14.128 26.6857C14.2855 26.2131 14.446 25.7376 14.6429 25.2741C15.4214 23.4294 16.5755 21.6816 18.0174 20.2882C18.9322 19.4067 19.9833 18.6434 21.0859 18.0103C21.9583 17.5105 22.8821 17.0682 23.8303 16.7289C25.2055 16.2352 26.6443 15.9081 28.071 15.593L31.6575 14.9387L36.9857 14.2875L39.4424 14.0391C40.3935 13.9422 41.378 13.924 42.2988 13.6574C42.5109 13.5968 42.7229 13.5332 42.9198 13.4333C43.1894 13.2939 43.3348 13.1213 43.4317 12.8335L43.4529 12.994L43.6377 14.4753C43.665 14.7085 43.6559 14.9448 43.668 15.175L43.7074 15.69L43.7164 17.2984L43.7074 18.3495L43.668 18.9584L43.6528 19.4854L43.5135 20.7032L43.359 21.8451C43.0137 23.8686 42.3897 25.8708 41.4204 27.6823C41.2629 27.973 41.1144 28.2669 40.9387 28.5456C40.5995 29.0878 40.2057 29.5876 39.8089 30.0874L38.8638 31.084C38.7487 31.196 38.6154 31.3445 38.47 31.4232C38.47 31.4323 38.4549 31.4384 38.4488 31.4475L37.8702 31.923C36.9373 32.6561 35.868 33.2346 34.7654 33.6678L32.5662 34.419L31.3031 34.837L28.7193 35.5459L27.0411 36.0063L25.9506 36.3031L22.7428 37.0695L18.3112 38.2266C17.0905 38.6083 15.9061 39.0475 14.7914 39.6806C13.9432 40.1622 13.1647 40.7953 12.5407 41.5496C12.2287 41.9282 11.9561 42.3341 11.6714 42.7309C11.6562 42.6461 11.6774 42.5249 11.6835 42.4341C11.7077 41.9797 11.8077 41.5405 11.9228 41.1013C12.0924 40.4409 12.3075 39.7957 12.5619 39.1626C13.0254 37.9994 13.6312 36.8817 14.3309 35.8427C14.6248 35.4065 14.9125 34.9582 15.2366 34.5432C17.7811 31.293 21.0495 28.6607 24.6269 26.6221L27.2259 25.262C27.3562 25.2014 27.962 24.9439 28.0044 24.8712C27.9892 24.8591 27.9862 24.8591 27.968 24.8531C27.8317 24.8228 27.6015 24.8682 27.4652 24.8955L26.5898 25.1014C25.4872 25.3771 24.424 25.8072 23.3941 26.2737L22.6216 26.613C21.6947 27.0643 20.8072 27.5823 19.9439 28.1427L18.8958 28.8333L16.7512 30.4781L13.4767 33.6102ZM13.4767 33.6102L16.7512 30.4781L16.727 30.4751C16.6906 30.469 16.7058 30.4721 16.6724 30.46L16.6361 30.5054H16.6058C16.5846 30.5448 16.5907 30.5448 16.5513 30.5629C16.4786 30.5963 16.4089 30.6871 16.3514 30.7417L16.3332 30.7508C16.315 30.7659 16.309 30.775 16.2968 30.7932C16.2544 30.8113 16.2484 30.8477 16.215 30.8598C16.1817 30.8719 16.1575 30.9022 16.1302 30.9264L15.9939 31.0476L15.9697 31.0658L15.9606 31.0809C15.9455 31.1052 15.9333 31.1052 15.9121 31.1233L15.8728 31.1597L15.8576 31.1748C15.8364 31.193 15.8485 31.1839 15.8303 31.2021C15.8061 31.2294 15.7789 31.2506 15.7486 31.2718C15.6668 31.3263 15.5759 31.4172 15.5062 31.4899C15.376 31.6292 15.2064 31.7473 15.0852 31.8927C15.067 31.92 15.0549 31.92 15.0337 31.9382C15.0125 31.9563 14.9973 31.9775 14.9731 31.9988C14.9125 32.0502 14.8429 32.1229 14.7944 32.1835C14.7702 32.2108 14.7611 32.2108 14.7368 32.229C14.6581 32.2956 14.5733 32.3956 14.5006 32.4683C14.4854 32.4864 14.4854 32.4955 14.4612 32.5107C14.3855 32.5652 14.3006 32.6712 14.2279 32.7409L13.7009 33.2922C13.6191 33.377 13.5161 33.4558 13.4495 33.5497L13.4616 33.5739C13.4767 33.6012 13.4737 33.5921 13.4767 33.6102ZM38.47 31.4232C38.6154 31.3445 38.7487 31.196 38.8638 31.084L39.8089 30.0874C39.7846 30.0692 39.7816 30.0662 39.7483 30.0601C39.7089 30.1056 39.6665 30.148 39.6332 30.1964C39.5332 30.3327 39.3848 30.4357 39.2727 30.5629C39.0395 30.8386 38.7608 31.0779 38.5033 31.3293L38.4609 31.3596L38.47 31.4232Z" fill="url(#paint0_linear_1013_1549)"/>
</g>
<defs>
<filter id="filter0_ii_1013_1549" x="0" y="-3.5" width="56" height="63" filterUnits="userSpaceOnUse" color-interpolation-filters="sRGB">
<feFlood flood-opacity="0" result="BackgroundImageFix"/>
<feBlend mode="normal" in="SourceGraphic" in2="BackgroundImageFix" result="shape"/>
<feColorMatrix in="SourceAlpha" type="matrix" values="0 0 0 0 0 0 0 0 0 0 0 0 0 0 0 0 0 0 127 0" result="hardAlpha"/>
<feOffset dy="-3.5"/>
<feGaussianBlur stdDeviation="1.75"/>
<feComposite in2="hardAlpha" operator="arithmetic" k2="-1" k3="1"/>
<feColorMatrix type="matrix" values="0 0 0 0 0 0 0 0 0 0 0 0 0 0 0 0 0 0 0.1 0"/>
<feBlend mode="normal" in2="shape" result="effect1_innerShadow_1013_1549"/>
<feColorMatrix in="SourceAlpha" type="matrix" values="0 0 0 0 0 0 0 0 0 0 0 0 0 0 0 0 0 0 127 0" result="hardAlpha"/>
<feOffset dy="3.5"/>
<feGaussianBlur stdDeviation="1.75"/>
<feComposite in2="hardAlpha" operator="arithmetic" k2="-1" k3="1"/>
<feColorMatrix type="matrix" values="0 0 0 0 1 0 0 0 0 1 0 0 0 0 1 0 0 0 0.1 0"/>
<feBlend mode="normal" in2="effect1_innerShadow_1013_1549" result="effect2_innerShadow_1013_1549"/>
</filter>
<linearGradient id="paint0_linear_1013_1549" x1="27.6912" y1="12.8335" x2="27.6912" y2="42.7309" gradientUnits="userSpaceOnUse">
<stop stop-color="#0F1828"/>
<stop offset="1" stop-color="#0F1828" stop-opacity="0.56"/>
</linearGradient>
</defs>
</svg>
