<svg width="219" height="56" viewBox="0 0 219 56" fill="none" xmlns="http://www.w3.org/2000/svg">
<path d="M81.7738 23.2778C81.6821 22.3532 81.2886 21.635 80.5933 21.123C79.8979 20.6111 78.9543 20.3551 77.7623 20.3551C76.9523 20.3551 76.2685 20.4697 75.7107 20.6989C75.1529 20.9205 74.725 21.23 74.427 21.6273C74.1367 22.0246 73.9915 22.4755 73.9915 22.9798C73.9762 23.4 74.0641 23.7668 74.2551 24.0801C74.4538 24.3933 74.725 24.6646 75.0689 24.8938C75.4127 25.1154 75.81 25.3103 76.2608 25.4784C76.7117 25.6388 77.193 25.7764 77.705 25.891L79.8139 26.3953C80.8378 26.6245 81.7776 26.9301 82.6334 27.3122C83.4892 27.6942 84.2304 28.1642 84.8569 28.7219C85.4835 29.2797 85.9687 29.9369 86.3125 30.6933C86.664 31.4498 86.8436 32.317 86.8512 33.2951C86.8436 34.7316 86.4768 35.977 85.7509 37.0315C85.0327 38.0783 83.9935 38.8921 82.6334 39.4728C81.281 40.0458 79.6496 40.3324 77.7394 40.3324C75.8444 40.3324 74.194 40.042 72.788 39.4613C71.3897 38.8806 70.2971 38.021 69.5101 36.8825C68.7307 35.7363 68.3219 34.3189 68.2837 32.6303H73.086C73.1395 33.4173 73.3649 34.0744 73.7622 34.6017C74.1672 35.1212 74.7059 35.5148 75.3783 35.7822C76.0584 36.042 76.8263 36.1719 77.6821 36.1719C78.5226 36.1719 79.2523 36.0496 79.8712 35.8051C80.4978 35.5606 80.983 35.2206 81.3268 34.785C81.6706 34.3495 81.8426 33.849 81.8426 33.2836C81.8426 32.7564 81.6859 32.3132 81.3726 31.9541C81.067 31.5949 80.6162 31.2893 80.0202 31.0372C79.4318 30.785 78.7098 30.5558 77.854 30.3495L75.2981 29.7076C73.3191 29.2262 71.7565 28.4736 70.6104 27.4497C69.4642 26.4258 68.895 25.0466 68.9026 23.3121C68.895 21.8909 69.2732 20.6493 70.0373 19.5872C70.809 18.5251 71.8673 17.696 73.2121 17.1C74.5569 16.5041 76.0851 16.2061 77.7967 16.2061C79.5388 16.2061 81.0594 16.5041 82.3583 17.1C83.6649 17.696 84.6812 18.5251 85.4071 19.5872C86.133 20.6493 86.5074 21.8795 86.5303 23.2778H81.7738ZM99.4617 22.3952V26.0629H88.8598V22.3952H99.4617ZM91.2667 18.1774H96.1493V34.5902C96.1493 35.041 96.2181 35.3925 96.3556 35.6447C96.4931 35.8892 96.6842 36.0611 96.9287 36.1604C97.1808 36.2598 97.4712 36.3094 97.7998 36.3094C98.029 36.3094 98.2582 36.2903 98.4874 36.2521C98.7167 36.2063 98.8924 36.1719 99.0147 36.149L99.7826 39.7822C99.5381 39.8586 99.1942 39.9465 98.7511 40.0458C98.3079 40.1528 97.7692 40.2178 97.135 40.2407C95.9583 40.2865 94.9268 40.1299 94.0404 39.7708C93.1617 39.4116 92.4778 38.8539 91.9888 38.0974C91.4998 37.3409 91.2591 36.3858 91.2667 35.232V18.1774ZM107.662 40.3324C106.539 40.3324 105.538 40.1375 104.659 39.7478C103.781 39.3505 103.085 38.766 102.573 37.9942C102.069 37.2149 101.817 36.2445 101.817 35.083C101.817 34.105 101.997 33.2836 102.356 32.6188C102.715 31.9541 103.204 31.4192 103.823 31.0142C104.442 30.6093 105.145 30.3036 105.932 30.0973C106.726 29.891 107.559 29.7458 108.43 29.6618C109.454 29.5548 110.279 29.4555 110.906 29.3638C111.532 29.2645 111.987 29.1193 112.27 28.9283C112.553 28.7372 112.694 28.4545 112.694 28.0801V28.0113C112.694 27.2854 112.465 26.7238 112.006 26.3265C111.555 25.9292 110.914 25.7305 110.081 25.7305C109.202 25.7305 108.503 25.9254 107.983 26.315C107.464 26.6971 107.12 27.1785 106.952 27.7592L102.436 27.3924C102.665 26.3227 103.116 25.3981 103.788 24.6188C104.461 23.8317 105.328 23.2281 106.39 22.8078C107.46 22.3799 108.698 22.166 110.104 22.166C111.082 22.166 112.018 22.2806 112.912 22.5098C113.813 22.7391 114.612 23.0944 115.307 23.5758C116.01 24.0571 116.564 24.6761 116.969 25.4325C117.374 26.1813 117.576 27.0791 117.576 28.1259V40H112.946V37.5587H112.809C112.526 38.1089 112.148 38.5941 111.674 39.0143C111.2 39.4269 110.631 39.7517 109.966 39.9885C109.301 40.2178 108.533 40.3324 107.662 40.3324ZM109.061 36.9627C109.779 36.9627 110.413 36.8214 110.963 36.5386C111.513 36.2483 111.945 35.8586 112.258 35.3696C112.572 34.8806 112.728 34.3266 112.728 33.7077V31.8395C112.575 31.9388 112.365 32.0305 112.098 32.1145C111.838 32.1909 111.544 32.2635 111.215 32.3323C110.887 32.3934 110.558 32.4507 110.23 32.5042C109.901 32.5501 109.603 32.5921 109.336 32.6303C108.763 32.7143 108.262 32.8481 107.834 33.0314C107.406 33.2148 107.074 33.4632 106.837 33.7764C106.6 34.0821 106.482 34.4641 106.482 34.9226C106.482 35.5873 106.722 36.0955 107.204 36.447C107.693 36.7908 108.312 36.9627 109.061 36.9627ZM121.364 40V22.3952H126.098V25.4669H126.281C126.602 24.3742 127.141 23.549 127.897 22.9912C128.654 22.4258 129.525 22.1431 130.511 22.1431C130.755 22.1431 131.019 22.1584 131.302 22.1889C131.584 22.2195 131.833 22.2615 132.047 22.315V26.6474C131.817 26.5787 131.5 26.5175 131.095 26.464C130.69 26.4106 130.32 26.3838 129.983 26.3838C129.265 26.3838 128.623 26.5405 128.058 26.8537C127.5 27.1594 127.057 27.5873 126.728 28.1374C126.408 28.6876 126.247 29.3218 126.247 30.04V40H121.364ZM144.817 22.3952V26.0629H134.216V22.3952H144.817ZM136.623 18.1774H141.505V34.5902C141.505 35.041 141.574 35.3925 141.711 35.6447C141.849 35.8892 142.04 36.0611 142.284 36.1604C142.537 36.2598 142.827 36.3094 143.156 36.3094C143.385 36.3094 143.614 36.2903 143.843 36.2521C144.072 36.2063 144.248 36.1719 144.37 36.149L145.138 39.7822C144.894 39.8586 144.55 39.9465 144.107 40.0458C143.664 40.1528 143.125 40.2178 142.491 40.2407C141.314 40.2865 140.283 40.1299 139.396 39.7708C138.517 39.4116 137.834 38.8539 137.345 38.0974C136.856 37.3409 136.615 36.3858 136.623 35.232V18.1774ZM155.832 40.3438C154.021 40.3438 152.462 39.9771 151.156 39.2435C149.857 38.5024 148.856 37.4556 148.153 36.1031C147.45 34.743 147.098 33.1346 147.098 31.2778C147.098 29.4669 147.45 27.8776 148.153 26.5099C148.856 25.1422 149.845 24.0762 151.121 23.3121C152.405 22.548 153.91 22.166 155.637 22.166C156.798 22.166 157.88 22.3532 158.881 22.7276C159.889 23.0944 160.768 23.6483 161.517 24.3895C162.273 25.1307 162.862 26.0629 163.282 27.1861C163.702 28.3017 163.912 29.6083 163.912 31.1059V32.4469H149.047V29.4211H159.316C159.316 28.7181 159.163 28.0954 158.858 27.5529C158.552 27.0104 158.128 26.5863 157.585 26.2807C157.051 25.9674 156.428 25.8107 155.717 25.8107C154.976 25.8107 154.319 25.9827 153.746 26.3265C153.18 26.6627 152.737 27.1173 152.416 27.6904C152.095 28.2558 151.931 28.8862 151.924 29.5816V32.4584C151.924 33.3294 152.084 34.0821 152.405 34.7163C152.733 35.3505 153.196 35.8395 153.792 36.1833C154.388 36.5272 155.095 36.6991 155.912 36.6991C156.455 36.6991 156.951 36.6227 157.402 36.4699C157.853 36.3171 158.239 36.0878 158.56 35.7822C158.881 35.4766 159.125 35.1021 159.293 34.659L163.809 34.957C163.58 36.042 163.11 36.9895 162.399 37.7994C161.696 38.6017 160.787 39.2283 159.671 39.6791C158.564 40.1223 157.284 40.3438 155.832 40.3438ZM167.098 40V22.3952H171.832V25.4669H172.015C172.336 24.3742 172.875 23.549 173.631 22.9912C174.388 22.4258 175.259 22.1431 176.245 22.1431C176.489 22.1431 176.753 22.1584 177.036 22.1889C177.318 22.2195 177.567 22.2615 177.781 22.315V26.6474C177.551 26.5787 177.234 26.5175 176.829 26.464C176.424 26.4106 176.054 26.3838 175.717 26.3838C174.999 26.3838 174.357 26.5405 173.792 26.8537C173.234 27.1594 172.791 27.5873 172.462 28.1374C172.142 28.6876 171.981 29.3218 171.981 30.04V40H167.098ZM202.365 16.527H207.328V31.7707C207.328 33.4823 206.919 34.9799 206.102 36.2636C205.292 37.5473 204.157 38.5482 202.698 39.2665C201.238 39.9771 199.538 40.3324 197.597 40.3324C195.649 40.3324 193.945 39.9771 192.486 39.2665C191.026 38.5482 189.891 37.5473 189.082 36.2636C188.272 34.9799 187.867 33.4823 187.867 31.7707V16.527H192.829V31.3466C192.829 32.2406 193.024 33.0353 193.414 33.7306C193.811 34.4259 194.369 34.9722 195.087 35.3696C195.806 35.7669 196.642 35.9656 197.597 35.9656C198.56 35.9656 199.397 35.7669 200.107 35.3696C200.826 34.9722 201.38 34.4259 201.769 33.7306C202.167 33.0353 202.365 32.2406 202.365 31.3466V16.527ZM216.374 16.527V40H211.411V16.527H216.374Z" fill="#0F1828"/>
<g filter="url(#filter0_ii_1013_1549)">
<rect width="56" height="56" rx="14" fill="#F8F6F0"/>
<rect x="0.5" y="0.5" width="55" height="55" rx="13.5" stroke="black" stroke-opacity="0.2"/>
<path d="M13.4767 33.6102C13.4495 33.6648 13.3768 33.7193 13.3344 33.7617C13.301 32.8621 13.2768 31.9685 13.3253 31.0688C13.3737 30.1843 13.501 29.3089 13.6766 28.4426C13.7978 27.8549 13.9371 27.2582 14.128 26.6857C14.2855 26.2131 14.446 25.7376 14.6429 25.2741C15.4214 23.4294 16.5755 21.6816 18.0174 20.2882C18.9322 19.4067 19.9833 18.6434 21.0859 18.0103C21.9583 17.5105 22.8821 17.0682 23.8303 16.7289C25.2055 16.2352 26.6443 15.9081 28.071 15.593L31.6575 14.9387L36.9857 14.2875L39.4424 14.0391C40.3935 13.9422 41.378 13.924 42.2988 13.6574C42.5109 13.5968 42.7229 13.5332 42.9198 13.4333C43.1894 13.2939 43.3348 13.1213 43.4317 12.8335L43.4529 12.994L43.6377 14.4753C43.665 14.7085 43.6559 14.9448 43.668 15.175L43.7074 15.69L43.7164 17.2984L43.7074 18.3495L43.668 18.9584L43.6528 19.4854L43.5135 20.7032L43.359 21.8451C43.0137 23.8686 42.3897 25.8708 41.4204 27.6823C41.2629 27.973 41.1144 28.2669 40.9387 28.5456C40.5995 29.0878 40.2057 29.5876 39.8089 30.0874L38.8638 31.084C38.7487 31.196 38.6154 31.3445 38.47 31.4232C38.47 31.4323 38.4549 31.4384 38.4488 31.4475L37.8702 31.923C36.9373 32.6561 35.868 33.2346 34.7654 33.6678L32.5662 34.419L31.3031 34.837L28.7193 35.5459L27.0411 36.0063L25.9506 36.3031L22.7428 37.0695L18.3112 38.2266C17.0905 38.6083 15.9061 39.0475 14.7914 39.6806C13.9432 40.1622 13.1647 40.7953 12.5407 41.5496C12.2287 41.9282 11.9561 42.3341 11.6714 42.7309C11.6562 42.6461 11.6774 42.5249 11.6835 42.4341C11.7077 41.9797 11.8077 41.5405 11.9228 41.1013C12.0924 40.4409 12.3075 39.7957 12.5619 39.1626C13.0254 37.9994 13.6312 36.8817 14.3309 35.8427C14.6248 35.4065 14.9125 34.9582 15.2366 34.5432C17.7811 31.293 21.0495 28.6607 24.6269 26.6221L27.2259 25.262C27.3562 25.2014 27.962 24.9439 28.0044 24.8712C27.9892 24.8591 27.9862 24.8591 27.968 24.8531C27.8317 24.8228 27.6015 24.8682 27.4652 24.8955L26.5898 25.1014C25.4872 25.3771 24.424 25.8072 23.3941 26.2737L22.6216 26.613C21.6947 27.0643 20.8072 27.5823 19.9439 28.1427L18.8958 28.8333L16.7512 30.4781L13.4767 33.6102ZM13.4767 33.6102L16.7512 30.4781L16.727 30.4751C16.6906 30.469 16.7058 30.4721 16.6724 30.46L16.6361 30.5054H16.6058C16.5846 30.5448 16.5907 30.5448 16.5513 30.5629C16.4786 30.5963 16.4089 30.6871 16.3514 30.7417L16.3332 30.7508C16.315 30.7659 16.309 30.775 16.2968 30.7932C16.2544 30.8113 16.2484 30.8477 16.215 30.8598C16.1817 30.8719 16.1575 30.9022 16.1302 30.9264L15.9939 31.0476L15.9697 31.0658L15.9606 31.0809C15.9455 31.1052 15.9333 31.1052 15.9121 31.1233L15.8728 31.1597L15.8576 31.1748C15.8364 31.193 15.8485 31.1839 15.8303 31.2021C15.8061 31.2294 15.7789 31.2506 15.7486 31.2718C15.6668 31.3263 15.5759 31.4172 15.5062 31.4899C15.376 31.6292 15.2064 31.7473 15.0852 31.8927C15.067 31.92 15.0549 31.92 15.0337 31.9382C15.0125 31.9563 14.9973 31.9775 14.9731 31.9988C14.9125 32.0502 14.8429 32.1229 14.7944 32.1835C14.7702 32.2108 14.7611 32.2108 14.7368 32.229C14.6581 32.2956 14.5733 32.3956 14.5006 32.4683C14.4854 32.4864 14.4854 32.4955 14.4612 32.5107C14.3855 32.5652 14.3006 32.6712 14.2279 32.7409L13.7009 33.2922C13.6191 33.377 13.5161 33.4558 13.4495 33.5497L13.4616 33.5739C13.4767 33.6012 13.4737 33.5921 13.4767 33.6102ZM38.47 31.4232C38.6154 31.3445 38.7487 31.196 38.8638 31.084L39.8089 30.0874C39.7846 30.0692 39.7816 30.0662 39.7483 30.0601C39.7089 30.1056 39.6665 30.148 39.6332 30.1964C39.5332 30.3327 39.3848 30.4357 39.2727 30.5629C39.0395 30.8386 38.7608 31.0779 38.5033 31.3293L38.4609 31.3596L38.47 31.4232Z" fill="url(#paint0_linear_1013_1549)"/>
</g>
<defs>
<filter id="filter0_ii_1013_1549" x="0" y="-3.5" width="56" height="63" filterUnits="userSpaceOnUse" color-interpolation-filters="sRGB">
<feFlood flood-opacity="0" result="BackgroundImageFix"/>
<feBlend mode="normal" in="SourceGraphic" in2="BackgroundImageFix" result="shape"/>
<feColorMatrix in="SourceAlpha" type="matrix" values="0 0 0 0 0 0 0 0 0 0 0 0 0 0 0 0 0 0 127 0" result="hardAlpha"/>
<feOffset dy="-3.5"/>
<feGaussianBlur stdDeviation="1.75"/>
<feComposite in2="hardAlpha" operator="arithmetic" k2="-1" k3="1"/>
<feColorMatrix type="matrix" values="0 0 0 0 0 0 0 0 0 0 0 0 0 0 0 0 0 0 0.1 0"/>
<feBlend mode="normal" in2="shape" result="effect1_innerShadow_1013_1549"/>
<feColorMatrix in="SourceAlpha" type="matrix" values="0 0 0 0 0 0 0 0 0 0 0 0 0 0 0 0 0 0 127 0" result="hardAlpha"/>
<feOffset dy="3.5"/>
<feGaussianBlur stdDeviation="1.75"/>
<feComposite in2="hardAlpha" operator="arithmetic" k2="-1" k3="1"/>
<feColorMatrix type="matrix" values="0 0 0 0 1 0 0 0 0 1 0 0 0 0 1 0 0 0 0.1 0"/>
<feBlend mode="normal" in2="effect1_innerShadow_1013_1549" result="effect2_innerShadow_1013_1549"/>
</filter>
<linearGradient id="paint0_linear_1013_1549" x1="27.6912" y1="12.8335" x2="27.6912" y2="42.7309" gradientUnits="userSpaceOnUse">
<stop stop-color="#0F1828"/>
<stop offset="1" stop-color="#0F1828" stop-opacity="0.56"/>
</linearGradient>
</defs>
</svg>
