<svg version="1.2" xmlns="http://www.w3.org/2000/svg" viewBox="0 0 275 91" width="275" height="91">
	<defs>
		<clipPath clipPathUnits="userSpaceOnUse" id="cp1">
			<path d="m-5-8.33h292v62.66h-292z"/>
		</clipPath>
	</defs>
	<style>
		.s0 { fill: #000000 } 
	</style>
	<g>
		<g id="Clip-Path" clip-path="url(#cp1)">
			<g>
				<g>
					<g>
						<g>
							<path class="s0" d="m0.55 40.44v-39.08h4.48v39.08z"/>
						</g>
					</g>
				</g>
				<g>
					<g>
						<g>
							<path class="s0" d="m52.49 1.36v40.14h-0.18l-30.5-33.81v32.75h-1.07v-39.81h0.19l30.5 33.79v-33.06z"/>
						</g>
					</g>
				</g>
				<g>
					<g>
						<g>
							<path class="s0" d="m66.77 37.46q1.63 1.29 4.07 2.42 2.45 1.12 6.43 1.12 2.56 0 4.73-1 2.17-1 3.5-3 1.36-2.02 1.36-5.08 0-2.6-1.07-4.27-1.06-1.69-2.83-2.79-1.77-1.13-3.89-1.94-2.11-0.81-4.25-1.71-2.13-0.89-3.9-2.13-1.77-1.24-2.83-3.2-1.07-1.96-1.07-4.94 0-2.94 1.13-4.98 1.12-2.04 2.92-3.31 1.81-1.29 3.85-1.88 2.04-0.58 3.92-0.58 2.47 0 4.43 0.58 1.96 0.59 3.11 1.19 1.14 0.58 1.14 0.58l0.07 1.25q-0.01 0-1.09-0.62-1.08-0.63-3.04-1.27-1.96-0.67-4.62-0.67-3.99 0-6.19 2.38-2.21 2.35-2.21 5.7 0 2.8 1.46 4.55 1.45 1.73 3.73 2.89 2.26 1.15 4.81 2.17 2.56 1.02 4.81 2.35 2.27 1.34 3.71 3.52 1.44 2.17 1.44 5.59 0 3.48-1.88 6.08-1.86 2.61-4.87 4.04-3.02 1.44-6.38 1.44-3.36 0-5.68-0.75-2.32-0.75-3.57-1.5-1.25-0.75-1.25-0.75z"/>
						</g>
					</g>
				</g>
				<g>
					<g>
						<g>
							<path class="s0" d="m105.36 40.44v-39.08h4.48v39.08z"/>
						</g>
					</g>
				</g>
				<g>
					<g>
						<g>
							<path class="s0" d="m141.7 1.36q2.12 0 4.75 0.37 2.64 0.38 5.29 1.44 2.64 1.04 4.81 3.1 2.19 2.05 3.52 5.46 1.33 3.42 1.34 8.52 0 5.28-1.5 8.86-1.49 3.56-3.92 5.77-2.42 2.21-5.19 3.39-2.75 1.17-5.33 1.61-2.59 0.43-4.42 0.5-1.83 0.06-2.33 0.06h-13.17v-39.08zm-3.04 38.02q3.16 0 6.4-0.86 3.24-0.87 5.91-2.98 2.67-2.12 4.27-5.85 1.63-3.73 1.63-9.44 0-4.54-1.13-7.71-1.11-3.16-3-5.14-1.89-2-4.2-3.04-2.3-1.07-4.69-1.46-2.38-0.42-4.5-0.42h-9.31v36.9z"/>
						</g>
					</g>
				</g>
				<g>
					<g>
						<g>
							<path class="s0" d="m195.94 2.42h-15.34v17.08h13.67v1.06h-13.67v18.82h15.34v1.06h-19.82v-39.08h19.82z"/>
						</g>
					</g>
				</g>
				<g>
					<g>
						<g>
							<path class="s0" d="m237.75 40.44h-5.58l-14.42-18.15h-2.85v18.15h-4.48v-39.08q0 0 1.39 0 1.39 0 3.38 0 2 0 3.96 0 1.95 0 3.08 0 1.16 0 3.25 0.35 2.08 0.33 4.19 1.33 2.12 1.01 3.58 2.96 1.46 1.94 1.46 5.11 0 3.06-1.13 5.04-1.1 1.98-2.91 3.21-1.8 1.2-3.79 1.83-1.99 0.61-3.73 0.85zm-22.86-38.02v18.84h3.36q5.45 0 8.62-2.11 3.17-2.12 3.17-7.29 0-5.14-2.71-7.29-2.69-2.15-7.48-2.15z"/>
						</g>
					</g>
				</g>
				<g>
					<g>
						<g>
							<path class="s0" d="m250.92 37.46q1.62 1.29 4.06 2.42 2.46 1.12 6.44 1.12 2.56 0 4.73-1 2.16-1 3.5-3 1.35-2.02 1.35-5.08 0-2.6-1.06-4.27-1.06-1.69-2.83-2.79-1.77-1.13-3.9-1.94-2.11-0.81-4.25-1.71-2.13-0.89-3.89-2.13-1.78-1.24-2.84-3.2-1.06-1.96-1.06-4.94 0-2.94 1.12-4.98 1.13-2.04 2.92-3.31 1.81-1.29 3.86-1.88 2.04-0.58 3.91-0.58 2.48 0 4.44 0.58 1.95 0.59 3.1 1.19 1.15 0.58 1.15 0.58l0.06 1.25q0 0-1.08-0.62-1.09-0.63-3.04-1.27-1.96-0.67-4.63-0.67-3.98 0-6.19 2.38-2.2 2.35-2.2 5.7 0 2.8 1.45 4.55 1.46 1.73 3.73 2.89 2.27 1.15 4.82 2.17 2.56 1.02 4.81 2.35 2.27 1.34 3.71 3.52 1.43 2.17 1.43 5.59 0 3.48-1.87 6.08-1.86 2.61-4.88 4.04-3.02 1.44-6.37 1.44-3.36 0-5.69-0.75-2.31-0.75-3.56-1.5-1.25-0.75-1.25-0.75z"/>
						</g>
					</g>
				</g>
			</g>
		</g>
	</g>
	<g>
		<g>
			<g>
				<path class="s0" d="m33.93 89.51l-0.02 1.17h-6.48v-10.55h6.48v1.17h-5.07v3.5h4.11v1.13h-4.11v3.58z"/>
			</g>
		</g>
	</g>
	<g>
		<g>
			<g>
				<path class="s0" d="m48.32 80.13l-4.29 10.55h-1.29l-4.29-10.55h1.14q0.19 0.01 0.3 0.11 0.12 0.09 0.18 0.23l2.98 7.44q0.08 0.25 0.17 0.56 0.1 0.29 0.19 0.6 0.06-0.31 0.14-0.6 0.08-0.31 0.19-0.56l2.96-7.44q0.04-0.12 0.16-0.23 0.13-0.1 0.32-0.11z"/>
			</g>
		</g>
	</g>
	<g>
		<g>
			<g>
				<path class="s0" d="m60.06 89.51l-0.03 1.17h-6.47v-10.55h6.47v1.17h-5.06v3.5h4.11v1.13h-4.11v3.58z"/>
			</g>
		</g>
	</g>
	<g>
		<g>
			<g>
				<path class="s0" d="m74.41 80.13v10.55h-0.71q-0.17 0-0.29-0.07-0.11-0.06-0.21-0.18l-6.1-7.96q0.02 0.19 0.02 0.37 0.02 0.17 0.02 0.34v7.5h-1.25v-10.55h0.73q0.08 0.01 0.14 0.03 0.08 0 0.13 0.04 0.06 0.02 0.1 0.06 0.07 0.05 0.13 0.12l6.08 7.94q-0.02-0.19-0.04-0.37 0-0.19 0-0.36v-7.46z"/>
			</g>
		</g>
	</g>
	<g>
		<g>
			<g>
				<path class="s0" d="m88.08 81.34h-3.42v9.34h-1.41v-9.34h-3.42v-1.21h8.25z"/>
			</g>
		</g>
	</g>
	<g>
		<g>
			<g>
				<path class="s0" d="m98.86 81.78q-0.07 0.13-0.15 0.19-0.06 0.04-0.19 0.04-0.12 0-0.29-0.13-0.17-0.12-0.42-0.27-0.25-0.16-0.6-0.29-0.36-0.12-0.87-0.12-0.49 0-0.86 0.14-0.36 0.13-0.6 0.36-0.23 0.21-0.36 0.5-0.12 0.29-0.12 0.64 0 0.44 0.21 0.73 0.22 0.3 0.58 0.5 0.35 0.21 0.79 0.36 0.45 0.15 0.94 0.31 0.48 0.17 0.92 0.37 0.45 0.19 0.81 0.5 0.35 0.32 0.56 0.77 0.23 0.45 0.23 1.09 0 0.71-0.23 1.31-0.23 0.61-0.69 1.06-0.46 0.44-1.12 0.71-0.65 0.25-1.48 0.25-1.05 0-1.88-0.37-0.83-0.38-1.43-1l0.41-0.69q0.06-0.08 0.15-0.13 0.08-0.06 0.19-0.06 0.1 0 0.2 0.08 0.13 0.07 0.28 0.19 0.16 0.13 0.35 0.27 0.21 0.13 0.46 0.25 0.25 0.11 0.56 0.19 0.33 0.09 0.75 0.08 0.5 0.01 0.9-0.14 0.39-0.14 0.66-0.4 0.29-0.24 0.44-0.6 0.14-0.35 0.15-0.79-0.01-0.48-0.23-0.77-0.21-0.32-0.57-0.53-0.35-0.2-0.81-0.33-0.44-0.14-0.91-0.29-0.49-0.17-0.94-0.35-0.44-0.21-0.79-0.53-0.36-0.3-0.59-0.79-0.21-0.47-0.21-1.16 0-0.56 0.21-1.09 0.23-0.51 0.65-0.91 0.41-0.42 1.02-0.65 0.6-0.25 1.4-0.25 0.87 0 1.58 0.27 0.73 0.28 1.29 0.81z"/>
			</g>
		</g>
	</g>
	<g>
		<g>
			<g>
			</g>
		</g>
	</g>
	<g>
		<g>
			<g>
				<path class="s0" d="m121.91 90.68h-1.27q-0.23 0-0.35-0.05-0.13-0.05-0.29-0.22l-1.07-1.07q-0.68 0.68-1.6 1.07-0.9 0.39-1.98 0.39-0.58 0-1.15-0.19-0.56-0.2-1.02-0.58-0.44-0.39-0.7-0.94-0.28-0.54-0.28-1.23 0-0.51 0.17-0.98 0.19-0.45 0.48-0.83 0.31-0.39 0.73-0.71 0.44-0.31 0.94-0.52-0.46-0.58-0.67-1.1-0.21-0.54-0.21-1.13 0-0.51 0.19-1 0.19-0.47 0.56-0.81 0.38-0.35 0.9-0.54 0.52-0.21 1.16-0.21 0.58 0 1.07 0.19 0.47 0.19 0.81 0.5 0.35 0.29 0.56 0.71 0.21 0.4 0.23 0.85l-0.81 0.15q-0.25 0.06-0.36-0.23-0.06-0.19-0.18-0.4-0.11-0.2-0.29-0.37-0.17-0.17-0.42-0.27-0.25-0.11-0.61-0.11-0.35 0-0.66 0.13-0.3 0.11-0.5 0.31-0.21 0.21-0.34 0.5-0.1 0.27-0.1 0.6 0 0.25 0.06 0.5 0.07 0.24 0.19 0.48 0.12 0.23 0.33 0.48 0.21 0.25 0.48 0.54l3.02 3.09q0.29-0.5 0.46-1.05 0.17-0.53 0.23-1.08 0-0.14 0.06-0.23 0.08-0.08 0.23-0.08h0.79q0 0.86-0.27 1.67-0.25 0.81-0.73 1.52zm-6.81-5.19q-0.77 0.42-1.16 1-0.4 0.58-0.4 1.27 0 0.48 0.17 0.85 0.18 0.36 0.48 0.61 0.28 0.25 0.64 0.37 0.38 0.13 0.75 0.13 0.83 0 1.48-0.29 0.67-0.29 1.17-0.82z"/>
			</g>
		</g>
	</g>
	<g>
		<g>
			<g>
			</g>
		</g>
	</g>
	<g>
		<g>
			<g>
				<path class="s0" d="m142.23 88.51q0.1 0 0.21 0.08l0.56 0.61q-0.65 0.75-1.58 1.18-0.92 0.42-2.23 0.42-1.13 0-2.06-0.39-0.92-0.4-1.59-1.11-0.65-0.7-1-1.71-0.35-1-0.35-2.18 0-1.19 0.37-2.17 0.38-1 1.05-1.71 0.68-0.73 1.62-1.1 0.96-0.4 2.11-0.4 1.12 0 1.97 0.35 0.88 0.36 1.53 0.98l-0.48 0.65q-0.05 0.09-0.11 0.12-0.06 0.05-0.19 0.05-0.12 0-0.33-0.13-0.19-0.14-0.5-0.31-0.29-0.19-0.77-0.33-0.46-0.15-1.12-0.15-0.84 0-1.53 0.29-0.67 0.28-1.14 0.81-0.48 0.55-0.77 1.32-0.27 0.77-0.27 1.73-0.01 1 0.29 1.77 0.29 0.77 0.77 1.31 0.5 0.52 1.15 0.81 0.66 0.27 1.45 0.27 0.46 0 0.84-0.06 0.37-0.06 0.68-0.17 0.33-0.12 0.61-0.29 0.29-0.19 0.56-0.44 0.13-0.1 0.25-0.1z"/>
			</g>
		</g>
	</g>
	<g>
		<g>
			<g>
				<path class="s0" d="m158.23 85.41q0 1.18-0.38 2.18-0.37 0.99-1.06 1.71-0.69 0.71-1.65 1.11-0.96 0.37-2.12 0.37-1.15 0-2.1-0.37-0.96-0.4-1.65-1.11-0.69-0.72-1.06-1.71-0.38-1-0.38-2.18 0-1.19 0.38-2.17 0.37-1 1.06-1.71 0.69-0.7 1.65-1.1 0.95-0.4 2.1-0.4 1.16 0 2.12 0.4 0.96 0.4 1.65 1.1 0.69 0.71 1.06 1.71 0.38 0.98 0.38 2.17zm-1.46 0q0-0.96-0.27-1.73-0.27-0.77-0.75-1.32-0.49-0.53-1.19-0.81-0.69-0.29-1.54-0.29-0.84 0-1.54 0.29-0.69 0.28-1.19 0.81-0.48 0.55-0.75 1.32-0.25 0.77-0.25 1.73 0 0.98 0.25 1.75 0.27 0.77 0.75 1.31 0.5 0.52 1.19 0.81 0.7 0.27 1.54 0.27 0.85 0 1.54-0.27 0.7-0.29 1.19-0.81 0.48-0.54 0.75-1.31 0.27-0.77 0.27-1.75z"/>
			</g>
		</g>
	</g>
	<g>
		<g>
			<g>
				<path class="s0" d="m172.63 80.13v10.55h-0.71q-0.17 0-0.29-0.07-0.11-0.06-0.21-0.18l-6.1-7.96q0.01 0.19 0.02 0.37 0.02 0.17 0.02 0.34v7.5h-1.25v-10.55h0.73q0.08 0.01 0.14 0.03 0.08 0 0.13 0.04 0.06 0.02 0.1 0.06 0.06 0.05 0.13 0.12l6.08 7.94q-0.02-0.19-0.04-0.37 0-0.19 0-0.36v-7.46z"/>
			</g>
		</g>
	</g>
	<g>
		<g>
			<g>
				<path class="s0" d="m186.57 88.51q0.1 0 0.21 0.08l0.56 0.61q-0.65 0.75-1.58 1.18-0.92 0.42-2.23 0.42-1.13 0-2.06-0.39-0.92-0.4-1.59-1.11-0.65-0.7-1-1.71-0.35-1-0.35-2.18 0-1.19 0.37-2.17 0.38-1 1.04-1.71 0.69-0.73 1.63-1.1 0.95-0.4 2.1-0.4 1.13 0 1.98 0.35 0.88 0.36 1.52 0.98l-0.48 0.65q-0.04 0.09-0.1 0.12-0.06 0.05-0.19 0.05-0.12 0-0.33-0.13-0.19-0.14-0.5-0.31-0.3-0.19-0.77-0.33-0.46-0.15-1.13-0.15-0.83 0-1.52 0.29-0.67 0.28-1.14 0.81-0.49 0.55-0.77 1.32-0.28 0.77-0.27 1.73-0.01 1 0.29 1.77 0.29 0.77 0.77 1.31 0.5 0.52 1.14 0.81 0.67 0.27 1.46 0.27 0.46 0 0.84-0.06 0.37-0.06 0.68-0.17 0.33-0.12 0.61-0.29 0.29-0.19 0.56-0.44 0.12-0.1 0.25-0.1z"/>
			</g>
		</g>
	</g>
	<g>
		<g>
			<g>
				<path class="s0" d="m194.25 90.68h-1.41v-10.55h1.41z"/>
			</g>
		</g>
	</g>
	<g>
		<g>
			<g>
				<path class="s0" d="m207.3 89.51l-0.02 1.17h-6.48v-10.55h6.48v1.17h-5.06v3.5h4.1v1.13h-4.1v3.58z"/>
			</g>
		</g>
	</g>
	<g>
		<g>
			<g>
				<path class="s0" d="m220.91 90.68h-1.25q-0.4 0-0.59-0.3l-2.73-3.77q-0.12-0.18-0.27-0.25-0.14-0.08-0.43-0.08h-1.09v4.4h-1.41v-10.55h2.98q0.99 0.01 1.7 0.21 0.73 0.21 1.21 0.59 0.48 0.37 0.71 0.91 0.23 0.55 0.23 1.21 0 0.56-0.19 1.06-0.17 0.49-0.5 0.88-0.33 0.38-0.81 0.64-0.48 0.28-1.1 0.42 0.26 0.15 0.47 0.44zm-4.85-5.44q0.6 0 1.08-0.14 0.48-0.15 0.8-0.42 0.32-0.29 0.47-0.67 0.17-0.39 0.17-0.85 0-0.94-0.62-1.42-0.61-0.48-1.84-0.48h-1.56v3.98z"/>
			</g>
		</g>
	</g>
	<g>
		<g>
			<g>
				<path class="s0" d="m234.73 85.61v4.05q-0.8 0.56-1.69 0.85-0.9 0.29-1.97 0.29-1.28 0-2.3-0.39-1.02-0.4-1.75-1.11-0.71-0.7-1.1-1.71-0.4-1-0.4-2.18 0-1.21 0.38-2.19 0.39-1 1.08-1.71 0.71-0.71 1.71-1.08 1-0.4 2.23-0.4 0.62 0 1.15 0.08 0.53 0.09 1 0.27 0.45 0.17 0.85 0.42 0.39 0.25 0.73 0.54l-0.42 0.65q-0.08 0.17-0.25 0.21-0.15 0.02-0.31-0.09-0.19-0.1-0.42-0.25-0.23-0.14-0.56-0.27-0.31-0.14-0.77-0.23-0.44-0.1-1.04-0.1-0.9 0-1.63 0.29-0.71 0.3-1.23 0.83-0.5 0.55-0.77 1.32-0.27 0.75-0.27 1.71 0 1 0.27 1.79 0.29 0.77 0.82 1.33 0.54 0.55 1.29 0.83 0.75 0.28 1.68 0.27 0.73 0.01 1.3-0.16 0.57-0.16 1.12-0.46v-2.31h-1.64q-0.15 0-0.23-0.09-0.09-0.07-0.09-0.18v-0.82z"/>
			</g>
		</g>
	</g>
	<g>
		<g>
			<g>
				<path class="s0" d="m247.27 89.51l-0.02 1.17h-6.48v-10.55h6.48v1.17h-5.06v3.5h4.1v1.13h-4.1v3.58z"/>
			</g>
		</g>
	</g>
</svg>